<svg width="54" height="52" viewBox="0 0 54 52" fill="none" xmlns="http://www.w3.org/2000/svg">
<path d="M21.2194 3.55966C17.5373 3.55966 14.006 5.04276 11.4024 7.68275C8.79875 10.3227 7.33603 13.9034 7.33603 17.6369C7.31585 19.6991 7.7469 21.7403 8.59816 23.6133C8.69539 23.7985 8.74625 24.0051 8.74625 24.2148C8.74625 24.4246 8.69539 24.6311 8.59816 24.8163L4.52148 31.7141H13.937C14.2566 27.1876 16.2585 22.9527 19.5382 19.8647C22.8179 16.7768 27.1311 15.0658 31.6068 15.0774C32.738 15.0778 33.8666 15.1892 34.9767 15.4101C34.4531 12.0964 32.7792 9.08123 30.2568 6.90838C27.7343 4.73553 24.5293 3.54792 21.2194 3.55966Z" stroke="white" stroke-width="2" stroke-miterlimit="10"/>
<path d="M13.9368 31.714H4.52133L8.598 24.8161C8.69524 24.6309 8.7461 24.4244 8.7461 24.2147C8.7461 24.0049 8.69524 23.7983 8.598 23.6131C7.74675 21.7401 7.3157 19.699 7.33587 17.6367C7.33587 13.9032 8.7986 10.3226 11.4022 7.68259C14.0059 5.0426 17.5372 3.5595 21.2193 3.5595C24.5183 3.563 27.7082 4.75749 30.2175 6.92899C32.7268 9.10049 34.3916 12.1071 34.9134 15.41C35.8103 15.5936 36.6921 15.846 37.5512 16.165C37.1887 12.0257 35.3115 8.17386 32.289 5.36734C29.2666 2.56083 25.3176 1.00289 21.2193 1C16.8677 1 12.6944 2.7528 9.61732 5.87279C6.54028 8.99278 4.81162 13.2244 4.81162 17.6367C4.80346 19.834 5.23274 22.0104 6.07374 24.0355L1.1767 32.3154C1.0611 32.5129 1.00007 32.7384 1 32.9681C1.00066 33.1879 1.05716 33.4039 1.16406 33.5952C1.27365 33.7928 1.43308 33.9575 1.62602 34.0722C1.81896 34.1869 2.03848 34.2474 2.26213 34.2478H13.9116C13.9116 33.8255 13.9116 33.4032 13.9116 32.9681C13.9116 32.533 13.9116 32.1363 13.9368 31.714Z" fill="white" stroke="white" stroke-width="2" stroke-miterlimit="10"/>
<path d="M52.6335 47.0712L48.0646 39.3927C48.8228 37.378 49.212 35.2399 49.2132 33.0835C49.209 29.4036 48.0874 25.8143 46.0009 22.8034C43.9144 19.7924 40.9641 17.506 37.5511 16.2548C36.6919 15.9358 35.8101 15.6835 34.9132 15.4998C33.8031 15.2789 32.6746 15.1675 31.5433 15.1671C27.0677 15.1555 22.7545 16.8664 19.4748 19.9544C16.195 23.0424 14.1932 27.2773 13.8735 31.8038C13.8735 32.2261 13.8735 32.6484 13.8735 33.0835C13.8735 33.5187 13.8735 33.941 13.8735 34.3633C14.1932 38.8898 16.195 43.1247 19.4748 46.2127C22.7545 49.3007 27.0677 51.0116 31.5433 51H50.4753C50.9201 51.0018 51.3574 50.8844 51.7431 50.6596C52.1287 50.4349 52.449 50.1109 52.6714 49.7203C52.8894 49.3302 53.0026 48.8889 52.9995 48.4405C53.0072 47.9582 52.8803 47.4835 52.6335 47.0712ZM31.5433 48.3509C27.7359 48.3644 24.0631 46.9233 21.2564 44.3145C18.4497 41.7058 16.7151 38.1209 16.3978 34.2737C16.3978 33.8514 16.3978 33.4291 16.3978 32.9939C16.3978 32.5588 16.3978 32.1365 16.3978 31.7142C16.7151 27.867 18.4497 24.2821 21.2564 21.6734C24.0631 19.0646 27.7359 17.6235 31.5433 17.637C32.7339 17.6437 33.9198 17.7897 35.0773 18.0721C35.9395 18.2798 36.7837 18.558 37.6016 18.9039C40.31 20.0935 42.6165 22.0597 44.2377 24.5606C45.8589 27.0616 46.724 29.9883 46.7268 32.9811C46.7245 35.0166 46.3211 37.0311 45.5403 38.9064L45.2879 39.5079L50.5131 48.3381L31.5433 48.3509Z" fill="white" stroke="white" stroke-width="2" stroke-miterlimit="10"/>
</svg>
