<svg width="50" height="41" viewBox="0 0 50 41" fill="none" xmlns="http://www.w3.org/2000/svg">
<g clip-path="url(#clip0_469_1586)">
<path d="M48.4375 3.79785H12.5C12.0856 3.79785 11.6882 3.96116 11.3951 4.25186C11.1021 4.54256 10.9375 4.93684 10.9375 5.34795C10.9375 5.75906 11.1021 6.15333 11.3951 6.44403C11.6882 6.73473 12.0856 6.89804 12.5 6.89804H46.875V36.5513L39.9219 31.9011C39.6609 31.7533 39.3625 31.6834 39.0625 31.6996H6.25V25.4992C6.25 25.0881 6.08538 24.6938 5.79235 24.4031C5.49933 24.1124 5.1019 23.9491 4.6875 23.9491C4.2731 23.9491 3.87567 24.1124 3.58265 24.4031C3.28962 24.6938 3.125 25.0881 3.125 25.4992V33.2496C3.125 33.6608 3.28962 34.055 3.58265 34.3457C3.87567 34.6364 4.2731 34.7997 4.6875 34.7997H38.5938L47.5781 40.7366C47.8131 40.8901 48.0856 40.9779 48.3666 40.9905C48.6477 41.0032 48.9271 40.9403 49.1751 40.8085C49.4232 40.6768 49.6308 40.481 49.776 40.2419C49.9211 40.0027 49.9986 39.7292 50 39.45V5.34795C50 4.93684 49.8354 4.54256 49.5424 4.25186C49.2493 3.96116 48.8519 3.79785 48.4375 3.79785Z" fill="white"/>
<path d="M3.12505 20.1511C3.12505 20.5622 3.28967 20.9565 3.58269 21.2472C3.87572 21.5379 4.27314 21.7012 4.68755 21.7012C5.10195 21.7012 5.49937 21.5379 5.7924 21.2472C6.08543 20.9565 6.25005 20.5622 6.25005 20.1511V5.34771L6.70317 5.81273C6.9974 6.10462 7.39645 6.26861 7.81255 6.26861C8.22864 6.26861 8.6277 6.10462 8.92192 5.81273C9.21615 5.52084 9.38144 5.12496 9.38144 4.71217C9.38144 4.29937 9.21615 3.90349 8.92192 3.6116L5.79692 0.511413C5.64832 0.370291 5.47309 0.259664 5.2813 0.185889C5.09426 0.103881 4.89203 0.0615234 4.68755 0.0615234C4.48306 0.0615234 4.28083 0.103881 4.0938 0.185889C3.902 0.259664 3.72677 0.370291 3.57817 0.511413L0.453171 3.6116C0.158946 3.90349 -0.00634766 4.29937 -0.00634766 4.71217C-0.00634766 5.12496 0.158946 5.52084 0.453171 5.81273C0.747395 6.10462 1.14645 6.26861 1.56255 6.26861C1.97864 6.26861 2.3777 6.10462 2.67192 5.81273L3.12505 5.34771V20.1511Z" fill="white"/>
</g>
<defs>
<clipPath id="clip0_469_1586">
<rect width="50" height="41" fill="white"/>
</clipPath>
</defs>
</svg>
