<svg width="50" height="39" viewBox="0 0 50 39" fill="none" xmlns="http://www.w3.org/2000/svg">
<g clip-path="url(#clip0_469_1592)">
<path d="M6.66675 10.3899V26.8477C6.66675 27.3464 7.41675 27.762 8.33341 27.762C9.25008 27.762 10.0001 27.3464 10.0001 26.8477V10.3899C10.0001 9.89119 9.25008 9.47559 8.33341 9.47559C7.41675 9.47559 6.66675 9.89119 6.66675 10.3899Z" fill="white"/>
<path d="M15 3.65728V33.5805C15 34.0214 15.1756 34.4443 15.4882 34.756C15.8007 35.0678 16.2246 35.243 16.6667 35.243C17.1087 35.243 17.5326 35.0678 17.8452 34.756C18.1577 34.4443 18.3333 34.0214 18.3333 33.5805V3.65728C18.3333 3.21638 18.1577 2.79354 17.8452 2.48178C17.5326 2.17002 17.1087 1.99487 16.6667 1.99487C16.2246 1.99487 15.8007 2.17002 15.4882 2.48178C15.1756 2.79354 15 3.21638 15 3.65728Z" fill="white"/>
<path d="M23.3333 10.3899V26.8477C23.3333 27.3464 24.0833 27.762 24.9999 27.762C25.9166 27.762 26.6666 27.3464 26.6666 26.8477V10.3899C26.6666 9.89119 25.9166 9.47559 24.9999 9.47559C24.0833 9.47559 23.3333 9.89119 23.3333 10.3899Z" fill="white"/>
<path d="M31.6667 3.65728V33.5805C31.6667 34.0214 31.8423 34.4443 32.1549 34.756C32.4675 35.0678 32.8914 35.243 33.3334 35.243C33.7754 35.243 34.1994 35.0678 34.5119 34.756C34.8245 34.4443 35.0001 34.0214 35.0001 33.5805V3.65728C35.0001 3.21638 34.8245 2.79354 34.5119 2.48178C34.1994 2.17002 33.7754 1.99487 33.3334 1.99487C32.8914 1.99487 32.4675 2.17002 32.1549 2.48178C31.8423 2.79354 31.6667 3.21638 31.6667 3.65728Z" fill="white"/>
<path d="M40 11.138V26.0996C40 26.5405 40.1756 26.9634 40.4882 27.2751C40.8007 27.5869 41.2246 27.762 41.6667 27.762C42.1087 27.762 42.5326 27.5869 42.8452 27.2751C43.1577 26.9634 43.3333 26.5405 43.3333 26.0996V11.138C43.3333 10.6971 43.1577 10.2743 42.8452 9.96249C42.5326 9.65073 42.1087 9.47559 41.6667 9.47559C41.2246 9.47559 40.8007 9.65073 40.4882 9.96249C40.1756 10.2743 40 10.6971 40 11.138Z" fill="white"/>
<path d="M5 38.2353C3.67392 38.2353 2.40215 37.7099 1.46447 36.7746C0.526784 35.8393 0 34.5708 0 33.2481V4.98721C0 3.66452 0.526784 2.396 1.46447 1.46072C2.40215 0.525433 3.67392 0 5 0C5.44203 0 5.86595 0.175144 6.17851 0.486906C6.49107 0.798667 6.66667 1.22151 6.66667 1.6624C6.66667 2.1033 6.49107 2.52614 6.17851 2.8379C5.86595 3.14966 5.44203 3.32481 5 3.32481C4.55797 3.32481 4.13405 3.49995 3.82149 3.81171C3.50893 4.12348 3.33333 4.54632 3.33333 4.98721V33.2481C3.33333 33.689 3.50893 34.1118 3.82149 34.4236C4.13405 34.7353 4.55797 34.9105 5 34.9105C5.44203 34.9105 5.86595 35.0856 6.17851 35.3974C6.49107 35.7092 6.66667 36.132 6.66667 36.5729C6.66667 37.0138 6.49107 37.4366 6.17851 37.7484C5.86595 38.0602 5.44203 38.2353 5 38.2353Z" fill="white"/>
<path d="M44.9999 38.2353C44.5579 38.2353 44.134 38.0602 43.8214 37.7484C43.5088 37.4366 43.3333 37.0138 43.3333 36.5729C43.3333 36.132 43.5088 35.7092 43.8214 35.3974C44.134 35.0856 44.5579 34.9105 44.9999 34.9105C45.4419 34.9105 45.8659 34.7353 46.1784 34.4236C46.491 34.1118 46.6666 33.689 46.6666 33.2481V4.98721C46.6666 4.54632 46.491 4.12348 46.1784 3.81171C45.8659 3.49995 45.4419 3.32481 44.9999 3.32481C44.5579 3.32481 44.134 3.14966 43.8214 2.8379C43.5088 2.52614 43.3333 2.1033 43.3333 1.6624C43.3333 1.22151 43.5088 0.798667 43.8214 0.486906C44.134 0.175144 44.5579 0 44.9999 0C46.326 0 47.5978 0.525433 48.5355 1.46072C49.4731 2.396 49.9999 3.66452 49.9999 4.98721V33.2481C49.9999 34.5708 49.4731 35.8393 48.5355 36.7746C47.5978 37.7099 46.326 38.2353 44.9999 38.2353Z" fill="white"/>
</g>
<defs>
<clipPath id="clip0_469_1592">
<rect width="50" height="38.2353" fill="white"/>
</clipPath>
</defs>
</svg>
