<svg width="50" height="50" viewBox="0 0 50 50" fill="none" xmlns="http://www.w3.org/2000/svg">
<g clip-path="url(#clip0_469_1604)">
<path d="M21.0833 23.7386L12.6725 15.3277C11.8796 14.5349 10.5941 14.5349 9.80117 15.3277L1.39035 23.7386C0.597459 24.5314 0.597459 25.817 1.39035 26.6099L9.80117 35.0207C10.5941 35.8136 11.8796 35.8136 12.6725 35.0207L21.0833 26.6099C21.8762 25.817 21.8762 24.5314 21.0833 23.7386Z" stroke="white" stroke-width="4" stroke-miterlimit="10"/>
<path d="M48.6065 23.7386L40.1957 15.3277C39.4028 14.5349 38.1172 14.5349 37.3244 15.3277L28.9135 23.7386C28.1207 24.5314 28.1207 25.817 28.9135 26.6099L37.3244 35.0207C38.1172 35.8136 39.4028 35.8136 40.1957 35.0207L48.6065 26.6099C49.3994 25.817 49.3994 24.5314 48.6065 23.7386Z" stroke="white" stroke-width="4" stroke-miterlimit="10"/>
<path d="M26.7478 21.0848L35.1586 12.6739C35.9515 11.881 35.9515 10.5955 35.1586 9.80263L26.7478 1.39181C25.9549 0.598924 24.6694 0.598925 23.8765 1.39181L15.4656 9.80263C14.6728 10.5955 14.6728 11.881 15.4656 12.6739L23.8765 21.0848C24.6694 21.8776 25.9549 21.8776 26.7478 21.0848Z" stroke="white" stroke-width="4" stroke-miterlimit="10"/>
<path d="M26.7475 48.6077L35.1583 40.1969C35.9512 39.404 35.9512 38.1185 35.1583 37.3256L26.7475 28.9148C25.9546 28.1219 24.6691 28.1219 23.8762 28.9148L15.4654 37.3256C14.6725 38.1185 14.6725 39.404 15.4654 40.1969L23.8762 48.6077C24.6691 49.4006 25.9546 49.4006 26.7475 48.6077Z" stroke="white" stroke-width="4" stroke-miterlimit="10"/>
</g>
<defs>
<clipPath id="clip0_469_1604">
<rect width="50" height="50" fill="white" transform="translate(-0.000244141)"/>
</clipPath>
</defs>
</svg>
