<svg width="50" height="50" viewBox="0 0 50 50" fill="none" xmlns="http://www.w3.org/2000/svg">
<g clip-path="url(#clip0_469_1611)">
<path d="M30.5083 18.2202V8.05073C30.5083 7.71359 30.6422 7.39026 30.8806 7.15186C31.119 6.91347 31.4423 6.77954 31.7795 6.77954H41.949C42.2861 6.77954 42.6095 6.91347 42.8478 7.15186C43.0862 7.39026 43.2202 7.71359 43.2202 8.05073V18.2202C43.2202 18.5574 43.0862 18.8807 42.8478 19.1191C42.6095 19.3575 42.2861 19.4914 41.949 19.4914H31.7795C31.4423 19.4914 31.119 19.3575 30.8806 19.1191C30.6422 18.8807 30.5083 18.5574 30.5083 18.2202ZM40.6778 9.32191H33.0507V16.949H40.6778V9.32191Z" fill="white"/>
<path d="M36.8642 14.4068C37.2013 14.4065 37.5244 14.2723 37.7625 14.0339C37.8228 13.9746 37.8767 13.9093 37.9236 13.839C37.9681 13.7683 38.0078 13.6947 38.0422 13.6186C38.0698 13.541 38.0924 13.4618 38.11 13.3813C38.1187 13.2996 38.1187 13.2173 38.11 13.1356C38.1078 12.7989 37.9741 12.4765 37.7371 12.2373C37.4937 12.0091 37.1725 11.8821 36.8388 11.8821C36.5051 11.8821 36.1839 12.0091 35.9405 12.2373C35.7036 12.4765 35.5697 12.7989 35.5676 13.1356C35.5588 13.2173 35.5588 13.2996 35.5676 13.3813C35.5851 13.4618 35.6078 13.541 35.6354 13.6186C35.6699 13.6947 35.7095 13.7683 35.7541 13.839C35.8009 13.9093 35.8549 13.9746 35.9151 14.0339C36.039 14.1582 36.1873 14.2555 36.3506 14.3197C36.514 14.3838 36.6889 14.4135 36.8642 14.4068Z" fill="white"/>
<path d="M6.77954 18.2202V8.05073C6.77954 7.71359 6.91346 7.39026 7.15186 7.15186C7.39025 6.91347 7.71359 6.77954 8.05073 6.77954H18.2202C18.5574 6.77954 18.8807 6.91347 19.1191 7.15186C19.3575 7.39026 19.4914 7.71359 19.4914 8.05073V18.2202C19.4914 18.5574 19.3575 18.8807 19.1191 19.1191C18.8807 19.3575 18.5574 19.4914 18.2202 19.4914H8.05073C7.71359 19.4914 7.39025 19.3575 7.15186 19.1191C6.91346 18.8807 6.77954 18.5574 6.77954 18.2202ZM16.949 9.32191H9.32191V16.949H16.949V9.32191Z" fill="white"/>
<path d="M13.1355 14.4068C13.4725 14.4065 13.7956 14.2723 14.0338 14.0339C14.094 13.9746 14.1479 13.9093 14.1948 13.839C14.2393 13.7683 14.279 13.6947 14.3134 13.6186C14.341 13.541 14.3637 13.4618 14.3812 13.3813C14.39 13.2996 14.39 13.2173 14.3812 13.1356C14.3791 12.7989 14.2452 12.4765 14.0083 12.2373C13.7649 12.0091 13.4437 11.8821 13.11 11.8821C12.7764 11.8821 12.4552 12.0091 12.2117 12.2373C11.9748 12.4765 11.841 12.7989 11.8388 13.1356C11.8301 13.2173 11.8301 13.2996 11.8388 13.3813C11.8564 13.4618 11.879 13.541 11.9066 13.6186C11.9411 13.6947 11.9807 13.7683 12.0253 13.839C12.0721 13.9093 12.1261 13.9746 12.1863 14.0339C12.3102 14.1582 12.4585 14.2555 12.6219 14.3197C12.7852 14.3838 12.9601 14.4135 13.1355 14.4068Z" fill="white"/>
<path d="M6.77954 41.949V31.7795C6.77954 31.4423 6.91346 31.119 7.15186 30.8806C7.39025 30.6422 7.71359 30.5083 8.05073 30.5083H18.2202C18.5574 30.5083 18.8807 30.6422 19.1191 30.8806C19.3575 31.119 19.4914 31.4423 19.4914 31.7795V41.949C19.4914 42.2861 19.3575 42.6094 19.1191 42.8478C18.8807 43.0862 18.5574 43.2202 18.2202 43.2202H8.05073C7.71359 43.2202 7.39025 43.0862 7.15186 42.8478C6.91346 42.6094 6.77954 42.2861 6.77954 41.949ZM16.949 33.0507H9.32191V40.6778H16.949V33.0507Z" fill="white"/>
<path d="M13.1356 38.1355C13.3868 38.1353 13.6324 38.0606 13.8412 37.9209C14.05 37.7812 14.2128 37.5828 14.3089 37.3506C14.405 37.1185 14.4302 36.8631 14.3813 36.6166C14.3323 36.3702 14.2114 36.1438 14.0339 35.966C13.7904 35.7378 13.4692 35.6108 13.1356 35.6108C12.8019 35.6108 12.4807 35.7378 12.2372 35.966C11.9992 36.2044 11.8655 36.5275 11.8655 36.8643C11.8655 37.2012 11.9992 37.5243 12.2372 37.7626C12.4754 38.0011 12.7985 38.1352 13.1356 38.1355Z" fill="white"/>
<path d="M15.6779 26.2711H25C25.3371 26.2711 25.6604 26.1371 25.8988 25.8987C26.1372 25.6604 26.2711 25.337 26.2711 24.9999V8.05073C26.2711 7.71359 26.1372 7.39026 25.8988 7.15186C25.6604 6.91347 25.3371 6.77954 25 6.77954C24.6628 6.77954 24.3395 6.91347 24.1011 7.15186C23.8627 7.39026 23.7288 7.71359 23.7288 8.05073V23.7287H15.6779C15.3408 23.7287 15.0174 23.8626 14.7791 24.101C14.5407 24.3394 14.4067 24.6627 14.4067 24.9999C14.4067 25.337 14.5407 25.6604 14.7791 25.8987C15.0174 26.1371 15.3408 26.2711 15.6779 26.2711Z" fill="white"/>
<path d="M8.05073 26.2711H10.5931C10.9302 26.2711 11.2536 26.1372 11.492 25.8988C11.7304 25.6604 11.8643 25.3371 11.8643 24.9999C11.8643 24.6628 11.7304 24.3395 11.492 24.1011C11.2536 23.8627 10.9302 23.7288 10.5931 23.7288H8.05073C7.71359 23.7288 7.39025 23.8627 7.15186 24.1011C6.91346 24.3395 6.77954 24.6628 6.77954 24.9999C6.77954 25.3371 6.91346 25.6604 7.15186 25.8988C7.39025 26.1372 7.71359 26.2711 8.05073 26.2711Z" fill="white"/>
<path d="M24.9999 38.3135C25.3371 38.3135 25.6604 38.1796 25.8988 37.9412C26.1372 37.7028 26.2711 37.3794 26.2711 37.0423V31.3559H30.9322C31.2693 31.3559 31.5926 31.2219 31.831 30.9835C32.0694 30.7451 32.2033 30.4218 32.2033 30.0847C32.2033 29.7475 32.0694 29.4242 31.831 29.1858C31.5926 28.9474 31.2693 28.8135 30.9322 28.8135H24.9999C24.6628 28.8135 24.3395 28.9474 24.1011 29.1858C23.8627 29.4242 23.7288 29.7475 23.7288 30.0847V37.0762C23.7376 37.4074 23.8754 37.7221 24.1129 37.9532C24.3503 38.1843 24.6686 38.3136 24.9999 38.3135Z" fill="white"/>
<path d="M24.9998 43.2202C25.3365 43.2181 25.6589 43.0843 25.8981 42.8473C26.1366 42.6092 26.2707 42.2861 26.271 41.949C26.2689 41.6124 26.135 41.2899 25.8981 41.0507C25.6547 40.8225 25.3335 40.6956 24.9998 40.6956C24.6661 40.6956 24.345 40.8225 24.1015 41.0507C23.924 41.2285 23.8031 41.4549 23.7541 41.7014C23.7051 41.9478 23.7303 42.2032 23.8264 42.4354C23.9226 42.6675 24.0853 42.8659 24.2942 43.0056C24.503 43.1453 24.7486 43.22 24.9998 43.2202Z" fill="white"/>
<path d="M31.7795 26.271H41.949C42.2861 26.271 42.6095 26.1371 42.8478 25.8987C43.0862 25.6603 43.2202 25.3369 43.2202 24.9998C43.2202 24.6627 43.0862 24.3393 42.8478 24.1009C42.6095 23.8625 42.2861 23.7286 41.949 23.7286H33.0507V23.3049C33.0507 22.9677 32.9168 22.6444 32.6784 22.406C32.44 22.1676 32.1166 22.0337 31.7795 22.0337C31.4423 22.0337 31.119 22.1676 30.8806 22.406C30.6422 22.6444 30.5083 22.9677 30.5083 23.3049V24.9998C30.5083 25.3369 30.6422 25.6603 30.8806 25.8987C31.119 26.1371 31.4423 26.271 31.7795 26.271Z" fill="white"/>
<path d="M30.0847 43.2201H41.9491C42.2862 43.2201 42.6095 43.0862 42.8479 42.8478C43.0863 42.6094 43.2203 42.2861 43.2203 41.9489C43.2203 41.6118 43.0863 41.2885 42.8479 41.0501C42.6095 40.8117 42.2862 40.6777 41.9491 40.6777H30.0847C29.7475 40.6777 29.4242 40.8117 29.1858 41.0501C28.9474 41.2885 28.8135 41.6118 28.8135 41.9489C28.8135 42.2861 28.9474 42.6094 29.1858 42.8478C29.4242 43.0862 29.7475 43.2201 30.0847 43.2201Z" fill="white"/>
<path d="M35.1694 43.2202C35.5065 43.2202 35.8299 43.0863 36.0682 42.8479C36.3066 42.6095 36.4406 42.2862 36.4406 41.949V35.1694C36.4406 34.8322 36.3066 34.5089 36.0682 34.2705C35.8299 34.0321 35.5065 33.8982 35.1694 33.8982C34.8322 33.8982 34.5089 34.0321 34.2705 34.2705C34.0321 34.5089 33.8982 34.8322 33.8982 35.1694V41.949C33.8982 42.2862 34.0321 42.6095 34.2705 42.8479C34.5089 43.0863 34.8322 43.2202 35.1694 43.2202Z" fill="white"/>
<path d="M30.9321 38.1354H35.1694C35.5065 38.1354 35.8298 38.0015 36.0682 37.7631C36.3066 37.5247 36.4405 37.2013 36.4405 36.8642C36.4405 36.5271 36.3066 36.2037 36.0682 35.9653C35.8298 35.7269 35.5065 35.593 35.1694 35.593H30.9321C30.5949 35.593 30.2716 35.7269 30.0332 35.9653C29.7948 36.2037 29.6609 36.5271 29.6609 36.8642C29.6609 37.2013 29.7948 37.5247 30.0332 37.7631C30.2716 38.0015 30.5949 38.1354 30.9321 38.1354Z" fill="white"/>
<path d="M41.9491 38.1355C42.2863 38.1355 42.6096 38.0016 42.848 37.7632C43.0864 37.5248 43.2203 37.2015 43.2203 36.8643V30.0847C43.2203 29.7475 43.0864 29.4242 42.848 29.1858C42.6096 28.9474 42.2863 28.8135 41.9491 28.8135H37.7119C37.3747 28.8135 37.0514 28.9474 36.813 29.1858C36.5746 29.4242 36.4407 29.7475 36.4407 30.0847C36.4407 30.4218 36.5746 30.7451 36.813 30.9835C37.0514 31.2219 37.3747 31.3558 37.7119 31.3558H40.678V36.8643C40.678 37.2015 40.8119 37.5248 41.0503 37.7632C41.2887 38.0016 41.612 38.1355 41.9491 38.1355Z" fill="white"/>
<path d="M1.92372 12.822C1.41351 12.822 0.924206 12.6194 0.563437 12.2586C0.202668 11.8978 0 11.4085 0 10.8983V1.92373C0 1.41352 0.202668 0.924216 0.563437 0.563447C0.924206 0.202678 1.41351 0 1.92372 0H10.8983C11.4085 0 11.8978 0.202678 12.2586 0.563447C12.6193 0.924216 12.822 1.41352 12.822 1.92373C12.822 2.43393 12.6193 2.92324 12.2586 3.28401C11.8978 3.64478 11.4085 3.84746 10.8983 3.84746H3.84746V10.8983C3.84746 11.4085 3.64477 11.8978 3.284 12.2586C2.92323 12.6194 2.43392 12.822 1.92372 12.822Z" fill="white"/>
<path d="M48.0931 12.822C47.5829 12.822 47.0936 12.6194 46.7329 12.2586C46.3721 11.8978 46.1694 11.4085 46.1694 10.8983V3.84746H39.1185C38.6083 3.84746 38.119 3.64478 37.7583 3.28401C37.3975 2.92324 37.1948 2.43393 37.1948 1.92373C37.1948 1.41352 37.3975 0.924216 37.7583 0.563447C38.119 0.202678 38.6083 0 39.1185 0H48.0931C48.6033 0 49.0926 0.202678 49.4534 0.563447C49.8141 0.924216 50.0169 1.41352 50.0169 1.92373V10.8983C50.0169 11.4085 49.8141 11.8978 49.4534 12.2586C49.0926 12.6194 48.6033 12.822 48.0931 12.822Z" fill="white"/>
<path d="M10.8983 50H1.92372C1.41644 50 0.929697 49.7997 0.569411 49.4426C0.209126 49.0855 0.00446944 48.6005 0 48.0932V39.1017C0 38.5915 0.202668 38.1022 0.563437 37.7414C0.924206 37.3807 1.41351 37.178 1.92372 37.178C2.43392 37.178 2.92323 37.3807 3.284 37.7414C3.64477 38.1022 3.84746 38.5915 3.84746 39.1017V46.1526H10.8983C11.4085 46.1526 11.8978 46.3552 12.2586 46.716C12.6193 47.0768 12.822 47.5661 12.822 48.0763C12.822 48.5865 12.6193 49.0758 12.2586 49.4366C11.8978 49.7973 11.4085 50 10.8983 50Z" fill="white"/>
<path d="M48.0932 50H39.1017C38.8491 50 38.5989 49.9503 38.3655 49.8536C38.1321 49.7569 37.9201 49.6152 37.7414 49.4366C37.5628 49.2579 37.4211 49.0459 37.3244 48.8125C37.2277 48.5791 37.178 48.3289 37.178 48.0763C37.178 47.8237 37.2277 47.5735 37.3244 47.3401C37.4211 47.1067 37.5628 46.8946 37.7414 46.716C37.9201 46.5374 38.1321 46.3957 38.3655 46.299C38.5989 46.2023 38.8491 46.1526 39.1017 46.1526H46.1526V39.1017C46.1526 38.5915 46.3552 38.1022 46.716 37.7414C47.0768 37.3807 47.5661 37.178 48.0763 37.178C48.5865 37.178 49.0758 37.3807 49.4366 37.7414C49.7973 38.1022 50 38.5915 50 39.1017V48.0932C49.9956 48.5976 49.7933 49.08 49.4366 49.4366C49.08 49.7933 48.5976 49.9956 48.0932 50Z" fill="white"/>
</g>
<defs>
<clipPath id="clip0_469_1611">
<rect width="50" height="50" fill="white"/>
</clipPath>
</defs>
</svg>
