<svg width="55" height="34" viewBox="0 0 55 34" fill="none" xmlns="http://www.w3.org/2000/svg">
<g clip-path="url(#clip0_469_1649)">
<path d="M54.4682 15.5467L46.9516 8.03003C44.3977 5.47456 41.3654 3.44734 38.0278 2.06424C34.6902 0.681131 31.1127 -0.0307617 27.4999 -0.0307617C23.8871 -0.0307617 20.3096 0.681131 16.972 2.06424C13.6344 3.44734 10.6021 5.47456 8.04822 8.03003L0.531555 15.5467C0.359719 15.7171 0.22333 15.9199 0.130254 16.1433C0.0371779 16.3667 -0.0107422 16.6063 -0.0107422 16.8484C-0.0107422 17.0904 0.0371779 17.33 0.130254 17.5534C0.22333 17.7768 0.359719 17.9796 0.531555 18.15L8.04822 25.6667C10.6021 28.2222 13.6344 30.2494 16.972 31.6325C20.3096 33.0156 23.8871 33.7275 27.4999 33.7275C31.1127 33.7275 34.6902 33.0156 38.0278 31.6325C41.3654 30.2494 44.3977 28.2222 46.9516 25.6667L54.4682 18.15C54.6401 17.9796 54.7764 17.7768 54.8695 17.5534C54.9626 17.33 55.0105 17.0904 55.0105 16.8484C55.0105 16.6063 54.9626 16.3667 54.8695 16.1433C54.7764 15.9199 54.6401 15.7171 54.4682 15.5467ZM44.3482 23.0634C39.879 27.5303 33.8187 30.0396 27.4999 30.0396C21.181 30.0396 15.1208 27.5303 10.6516 23.0634L4.41822 16.8484L10.6516 10.6334C15.1208 6.16643 21.181 3.65712 27.4999 3.65712C33.8187 3.65712 39.879 6.16643 44.3482 10.6334L50.5816 16.8484L44.3482 23.0634Z" fill="white"/>
<path d="M27.4999 7.68164C25.6869 7.68164 23.9146 8.21926 22.4072 9.2265C20.8997 10.2337 19.7248 11.6654 19.031 13.3404C18.3372 15.0154 18.1557 16.8585 18.5094 18.6366C18.8631 20.4148 19.7361 22.0481 21.0181 23.3301C22.3001 24.6121 23.9334 25.4851 25.7116 25.8388C27.4898 26.1925 29.3329 26.011 31.0079 25.3172C32.6828 24.6234 34.1145 23.4485 35.1217 21.941C36.129 20.4336 36.6666 18.6613 36.6666 16.8483C36.6666 14.4172 35.7008 12.0856 33.9817 10.3665C32.2627 8.64741 29.9311 7.68164 27.4999 7.68164ZM27.4999 22.3483C26.4121 22.3483 25.3488 22.0257 24.4443 21.4214C23.5398 20.817 22.8349 19.9581 22.4186 18.9531C22.0023 17.9481 21.8934 16.8422 22.1056 15.7753C22.3178 14.7084 22.8416 13.7284 23.6108 12.9592C24.38 12.19 25.36 11.6662 26.4269 11.454C27.4938 11.2418 28.5997 11.3507 29.6047 11.767C30.6097 12.1833 31.4687 12.8882 32.073 13.7927C32.6774 14.6971 32.9999 15.7605 32.9999 16.8483C32.9999 18.307 32.4205 19.7059 31.389 20.7374C30.3576 21.7688 28.9586 22.3483 27.4999 22.3483Z" fill="white"/>
</g>
<defs>
<clipPath id="clip0_469_1649">
<rect width="55" height="33.715" fill="white"/>
</clipPath>
</defs>
</svg>
